<svg width="16" height="16" viewBox="0 0 16 16" fill="none" xmlns="http://www.w3.org/2000/svg">
<rect width="16" height="16" rx="3" transform="matrix(1 0 0 -1 0 16)" fill="#3730A3"/>
<g filter="url(#filter0_d)">
<path fill-rule="evenodd" clip-rule="evenodd" d="M11.8 3C11.8 2.33726 12.3373 1.8 13 1.8C13.6627 1.8 14.2 2.33726 14.2 3C14.2 3.66274 13.6627 4.2 13 4.2C12.3373 4.2 11.8 3.66274 11.8 3ZM13 1C11.8954 1 11 1.89543 11 3C11 4.10457 11.8954 5 13 5C14.1046 5 15 4.10457 15 3C15 1.89543 14.1046 1 13 1ZM9.96223 7.93558C10.2121 7.72189 10.4239 7.6097 10.5977 7.59902C10.4891 7.82339 10.3587 8.07982 10.2067 8.3683C10.0546 8.64609 9.90791 8.9506 9.76669 9.28182C9.63633 9.60235 9.52227 9.94425 9.4245 10.3075C9.32673 10.6601 9.27784 11.018 9.27784 11.3813C9.27784 11.6057 9.29957 11.814 9.34302 12.0063C9.38648 12.1987 9.46252 12.3696 9.57115 12.5192C9.67978 12.6688 9.81558 12.7863 9.97853 12.8718C10.1523 12.9573 10.3696 13 10.6303 13C10.9128 13 11.1681 12.9412 11.3962 12.8237C11.6243 12.7169 11.847 12.578 12.0643 12.407C12.0643 12.3536 12.0589 12.2948 12.048 12.2307C12.0371 12.1666 11.9991 12.1132 11.9339 12.0705C11.8796 12.0705 11.7927 12.0972 11.6732 12.1506C11.5646 12.1933 11.4451 12.2147 11.3147 12.2147C11.1952 12.2147 11.1029 12.1826 11.0377 12.1185C10.9725 12.0437 10.9399 11.8942 10.9399 11.6698C10.9399 11.2851 11.0268 10.8524 11.2006 10.3716C11.3853 9.89083 11.5917 9.40469 11.8199 8.9132C12.048 8.41103 12.2707 7.93558 12.488 7.48683C12.7161 7.03808 12.879 6.65344 12.9768 6.33291C12.9008 6.11922 12.765 5.95895 12.5694 5.85211C12.3847 5.73458 12.1838 5.67582 11.9665 5.67582C11.6515 5.67582 11.3147 5.788 10.9562 6.01238C10.6086 6.23675 10.2284 6.55728 9.81558 6.97398C9.40277 7.39067 8.96281 7.89284 8.49568 8.48048C8.02856 9.05744 7.52885 9.70385 6.99655 10.4197C7.02914 10.1953 7.1432 9.89617 7.33874 9.52222C7.53428 9.13758 7.74612 8.74225 7.97425 8.33624C8.20237 7.93023 8.41421 7.54559 8.60975 7.18232C8.81615 6.80837 8.94651 6.51455 9.00083 6.30086C8.98996 6.2688 8.94108 6.22607 8.85417 6.17264C8.76727 6.10854 8.65863 6.04443 8.52827 5.98032C8.39791 5.91622 8.25669 5.86279 8.10461 5.82006C7.95252 5.77732 7.8113 5.75595 7.68094 5.75595C7.33331 5.75595 6.94223 5.9269 6.5077 6.2688C6.07317 6.61071 5.6332 7.0274 5.18781 7.51888C4.75327 8.01037 4.32417 8.53391 3.9005 9.0895C3.4877 9.64509 3.12921 10.1366 2.82504 10.5639C2.89022 10.1259 3.02601 9.69317 3.23241 9.26579C3.43881 8.83841 3.66694 8.42172 3.9168 8.01571C4.16665 7.6097 4.40565 7.22506 4.63378 6.86179C4.86191 6.48783 5.03029 6.13525 5.13892 5.80403C4.86734 5.53692 4.60662 5.33391 4.35676 5.19502C4.11777 5.05612 3.84619 4.95462 3.54201 4.89051C3.17266 5.53158 2.78701 6.23675 2.38507 7.00603C1.99399 7.77531 1.67353 8.54993 1.42367 9.3299C1.29331 9.7359 1.19011 10.1312 1.11406 10.5159C1.04888 10.9005 1.01086 11.221 1 11.4775C1.05432 11.7659 1.13579 12.0277 1.24442 12.2628C1.35306 12.4978 1.5486 12.7169 1.83104 12.9199C1.95054 12.8451 2.14065 12.5993 2.40137 12.1826C2.67295 11.7659 3.00971 11.2798 3.41165 10.7242C3.71583 10.3075 4.04173 9.88549 4.38935 9.45811C4.73698 9.02005 5.07374 8.63006 5.39964 8.28816C5.72554 7.93558 6.02971 7.65244 6.31216 7.43875C6.5946 7.21438 6.8173 7.09685 6.98025 7.08616C6.64349 7.55628 6.35561 8.00502 6.11662 8.4324C5.88849 8.8491 5.69295 9.24976 5.53 9.6344C5.37791 10.019 5.25299 10.393 5.15522 10.7563C5.05745 11.1089 4.9814 11.4508 4.92709 11.782C5.00313 12.0598 5.12806 12.2948 5.30187 12.4871C5.47568 12.6688 5.68209 12.8077 5.92108 12.9038C6.09489 12.7008 6.30673 12.4284 6.55658 12.0865C6.80644 11.7446 7.07259 11.3813 7.35504 10.9967C7.64835 10.6013 7.94709 10.206 8.25126 9.8107C8.5663 9.41537 8.86504 9.05744 9.14748 8.73691C9.44079 8.40569 9.71237 8.13858 9.96223 7.93558Z" fill="white"/>
</g>
<defs>
<filter id="filter0_d" x="1" y="1" width="14.5" height="12.6" filterUnits="userSpaceOnUse" color-interpolation-filters="sRGB">
<feFlood flood-opacity="0" result="BackgroundImageFix"/>
<feColorMatrix in="SourceAlpha" type="matrix" values="0 0 0 0 0 0 0 0 0 0 0 0 0 0 0 0 0 0 127 0"/>
<feOffset dx="0.5" dy="0.6"/>
<feColorMatrix type="matrix" values="0 0 0 0 0 0 0 0 0 0 0 0 0 0 0 0 0 0 0.25 0"/>
<feBlend mode="normal" in2="BackgroundImageFix" result="effect1_dropShadow"/>
<feBlend mode="normal" in="SourceGraphic" in2="effect1_dropShadow" result="shape"/>
</filter>
</defs>
</svg>
