<svg width="144" height="107" viewBox="0 0 144 107" fill="none" xmlns="http://www.w3.org/2000/svg">
<g filter="url(#filter0_dd)">
<path fill-rule="evenodd" clip-rule="evenodd" d="M111.467 21.4088C111.467 18.1354 114.121 15.4818 117.394 15.4818C120.668 15.4818 123.321 18.1354 123.321 21.4088C123.321 24.6822 120.668 27.3358 117.394 27.3358C114.121 27.3358 111.467 24.6822 111.467 21.4088ZM117.394 7.48175C109.702 7.48175 103.467 13.7171 103.467 21.4088C103.467 29.1004 109.702 35.3358 117.394 35.3358C125.086 35.3358 131.321 29.1004 131.321 21.4088C131.321 13.7171 125.086 7.48175 117.394 7.48175ZM76.3133 54.8658C78.2123 53.2146 79.8223 52.3477 81.1434 52.2651C80.3177 53.9989 79.3269 55.9804 78.171 58.2096C77.0151 60.3562 75.9005 62.7092 74.8271 65.2686C73.8364 67.7454 72.9694 70.3874 72.2263 73.1945C71.4832 75.919 71.1117 78.6848 71.1117 81.4919C71.1117 83.2257 71.2768 84.8357 71.6071 86.3218C71.9374 87.8079 72.5153 89.1289 73.341 90.2847C74.1666 91.4406 75.1987 92.3488 76.4372 93.0093C77.7582 93.6698 79.4095 94 81.3911 94C83.5378 94 85.478 93.5459 87.2119 92.6377C88.9458 91.8121 90.6384 90.7388 92.2897 89.4178C92.2897 89.005 92.2484 88.5509 92.1658 88.0556C92.0832 87.5602 91.7943 87.1474 91.2989 86.8171C90.886 86.8171 90.2255 87.0236 89.3173 87.4364C88.4917 87.7666 87.5834 87.9317 86.5927 87.9317C85.6844 87.9317 84.9826 87.684 84.4873 87.1887C83.9919 86.6107 83.7442 85.4549 83.7442 83.7211C83.7442 80.7489 84.4047 77.4051 85.7257 73.6899C87.1293 69.9746 88.6981 66.218 90.4319 62.4202C92.1658 58.5398 93.8584 54.8658 95.5097 51.3982C97.2436 47.9306 98.482 44.9584 99.2251 42.4816C98.6472 40.8303 97.6151 39.5919 96.1289 38.7663C94.7253 37.8581 93.1979 37.404 91.5466 37.404C89.1522 37.404 86.5927 38.2709 83.868 40.0047C81.2259 41.7385 78.3362 44.2154 75.1987 47.4353C72.0612 50.6552 68.7173 54.5356 65.167 59.0765C61.6167 63.5348 57.8187 68.5298 53.773 74.0614C54.0207 72.3276 54.8877 70.0159 56.3738 67.1262C57.86 64.154 59.47 61.0992 61.2039 57.9619C62.9378 54.8245 64.5478 51.8523 66.0339 49.0452C67.6027 46.1556 68.5935 43.8851 69.0063 42.2339C68.9237 41.9862 68.5522 41.656 67.8917 41.2432C67.2311 40.7478 66.4055 40.2524 65.4147 39.757C64.4239 39.2617 63.3506 38.8489 62.1947 38.5186C61.0388 38.1884 59.9654 38.0233 58.9746 38.0233C56.3325 38.0233 53.3602 39.3442 50.0576 41.9862C46.755 44.6282 43.4111 47.8481 40.0259 51.6459C36.7233 55.4437 33.462 59.4893 30.242 63.7825C27.1045 68.0757 24.3798 71.8735 22.068 75.176C22.5634 71.7909 23.5955 68.4472 25.1642 65.1447C26.733 61.8423 28.4668 58.6224 30.3658 55.485C32.2648 52.3477 34.0812 49.3755 35.8151 46.5684C37.549 43.6787 38.8287 40.9542 39.6544 38.3948C37.5903 36.3307 35.6087 34.7621 33.7097 33.6888C31.8933 32.6155 29.8291 31.8311 27.5173 31.3358C24.7101 36.2895 21.779 41.7385 18.7241 47.683C15.7518 53.6274 13.3161 59.6131 11.4171 65.6401C10.4263 68.7774 9.64197 71.8322 9.06402 74.8044C8.56863 77.7766 8.27965 80.2535 8.19708 82.235C8.60991 84.4641 9.22915 86.4869 10.0548 88.3033C10.8804 90.1196 12.3666 91.8121 14.5133 93.3808C15.4215 92.8029 16.8664 90.9039 18.848 87.684C20.9121 84.4641 23.4716 80.7076 26.5265 76.4144C28.8384 73.1945 31.3153 69.9333 33.9574 66.6308C36.5995 63.2458 39.159 60.2323 41.636 57.5903C44.1129 54.8658 46.4247 52.6779 48.5714 51.0267C50.7181 49.2929 52.4107 48.3847 53.6492 48.3022C51.0897 51.9349 48.9017 55.4025 47.0853 58.7049C45.3514 61.9248 43.8652 65.0209 42.6267 67.9931C41.4708 70.9653 40.5213 73.855 39.7782 76.6621C39.0352 79.3866 38.4572 82.0286 38.0444 84.588C38.6223 86.7346 39.5718 88.5509 40.8929 90.037C42.2139 91.4406 43.7826 92.5139 45.5991 93.2569C46.9201 91.6883 48.5301 89.583 50.4291 86.941C52.3281 84.299 54.351 81.4919 56.4977 78.5197C58.7269 75.4649 60.9975 72.4102 63.3093 69.3554C65.7037 66.3006 67.9742 63.5348 70.1209 61.0579C72.3502 58.4985 74.4143 56.4345 76.3133 54.8658Z" fill="url(#paint0_linear)"/>
</g>
<defs>
<filter id="filter0_dd" x="0.197083" y="0.48175" width="143.124" height="106.518" filterUnits="userSpaceOnUse" color-interpolation-filters="sRGB">
<feFlood flood-opacity="0" result="BackgroundImageFix"/>
<feColorMatrix in="SourceAlpha" type="matrix" values="0 0 0 0 0 0 0 0 0 0 0 0 0 0 0 0 0 0 127 0"/>
<feOffset dx="2" dy="3"/>
<feGaussianBlur stdDeviation="5"/>
<feColorMatrix type="matrix" values="0 0 0 0 0 0 0 0 0 0 0 0 0 0 0 0 0 0 0.13 0"/>
<feBlend mode="normal" in2="BackgroundImageFix" result="effect1_dropShadow"/>
<feColorMatrix in="SourceAlpha" type="matrix" values="0 0 0 0 0 0 0 0 0 0 0 0 0 0 0 0 0 0 127 0"/>
<feOffset dy="1"/>
<feGaussianBlur stdDeviation="1"/>
<feColorMatrix type="matrix" values="0 0 0 0 0 0 0 0 0 0 0 0 0 0 0 0 0 0 0.25 0"/>
<feBlend mode="normal" in2="effect1_dropShadow" result="effect2_dropShadow"/>
<feBlend mode="normal" in="SourceGraphic" in2="effect2_dropShadow" result="shape"/>
</filter>
<linearGradient id="paint0_linear" x1="49" y1="19" x2="95.3467" y2="102.808" gradientUnits="userSpaceOnUse">
<stop stop-color="#8530A3"/>
<stop offset="0.500338" stop-color="#3730A3"/>
<stop offset="1" stop-color="#2A2488"/>
</linearGradient>
</defs>
</svg>
